<svg preserveAspectRatio="none" overflow="visible" style="display: block;" width="214.499" height="214.499" viewBox="0 0 214.499 214.499" fill="none" xmlns="http://www.w3.org/2000/svg">
<g id="Union" filter="url(#filter0_d_0_117)">
<mask id="path-1-outside-1_0_117" maskUnits="userSpaceOnUse" x="3.5006" y="3.5764e-07" width="207" height="204" fill="black">
<rect fill="white" x="3.5006" y="3.5764e-07" width="207" height="204"/>
<path d="M92.2525 13.2619C99.9055 3.57933 114.593 3.57942 122.246 13.2619C127.276 19.6257 135.775 22.1221 143.447 19.4884C155.118 15.4822 167.47 23.4289 168.675 35.7091C169.468 43.7825 175.269 50.4819 183.147 52.4162C195.132 55.3587 201.229 68.7222 195.605 79.7072C191.908 86.929 193.168 95.7021 198.75 101.59C207.241 110.547 205.153 125.085 194.481 131.287C187.467 135.364 183.789 143.427 185.302 151.398C187.604 163.52 177.99 174.625 165.664 174.07C157.56 173.706 150.108 178.499 147.074 186.022C142.459 197.466 128.367 201.608 118.297 194.475C111.678 189.786 102.82 189.786 96.2008 194.475C86.1313 201.608 72.0404 197.466 67.4254 186.022C64.3916 178.499 56.939 173.706 48.8355 174.07C36.5085 174.625 26.8949 163.52 29.1969 151.398C30.7104 143.427 27.0315 135.364 20.0172 131.287C9.34557 125.085 7.25772 110.547 15.7496 101.59C21.3313 95.7021 22.5903 86.929 18.8931 79.7072C13.2693 68.7221 19.3672 55.3587 31.3521 52.4162C39.23 50.4817 45.0305 43.7823 45.8228 35.7091C47.0279 23.4291 59.3807 15.4825 71.0513 19.4884C78.7235 22.1221 87.2226 19.6257 92.2525 13.2619Z"/>
</mask>
<path d="M92.2525 13.2619C99.9055 3.57933 114.593 3.57942 122.246 13.2619C127.276 19.6257 135.775 22.1221 143.447 19.4884C155.118 15.4822 167.47 23.4289 168.675 35.7091C169.468 43.7825 175.269 50.4819 183.147 52.4162C195.132 55.3587 201.229 68.7222 195.605 79.7072C191.908 86.929 193.168 95.7021 198.75 101.59C207.241 110.547 205.153 125.085 194.481 131.287C187.467 135.364 183.789 143.427 185.302 151.398C187.604 163.52 177.99 174.625 165.664 174.07C157.56 173.706 150.108 178.499 147.074 186.022C142.459 197.466 128.367 201.608 118.297 194.475C111.678 189.786 102.82 189.786 96.2008 194.475C86.1313 201.608 72.0404 197.466 67.4254 186.022C64.3916 178.499 56.939 173.706 48.8355 174.07C36.5085 174.625 26.8949 163.52 29.1969 151.398C30.7104 143.427 27.0315 135.364 20.0172 131.287C9.34557 125.085 7.25772 110.547 15.7496 101.59C21.3313 95.7021 22.5903 86.929 18.8931 79.7072C13.2693 68.7221 19.3672 55.3587 31.3521 52.4162C39.23 50.4817 45.0305 43.7823 45.8228 35.7091C47.0279 23.4291 59.3807 15.4825 71.0513 19.4884C78.7235 22.1221 87.2226 19.6257 92.2525 13.2619Z" fill="#B41313"/>
<path d="M92.2525 13.2619L96.9597 16.9824L96.9597 16.9824L92.2525 13.2619ZM122.246 13.2619L126.953 9.54136L126.953 9.54132L122.246 13.2619ZM143.447 19.4884L141.499 13.8135L141.499 13.8135L143.447 19.4884ZM168.675 35.7091L162.704 36.2951L162.704 36.2952L168.675 35.7091ZM183.147 52.4162L184.578 46.5892V46.5892L183.147 52.4162ZM195.605 79.7072L190.264 76.973L190.264 76.973L195.605 79.7072ZM198.75 101.59L203.104 97.4621L203.104 97.462L198.75 101.59ZM194.481 131.287L191.466 126.1L191.466 126.1L194.481 131.287ZM185.302 151.398L191.197 150.278L191.197 150.278L185.302 151.398ZM165.664 174.07L165.394 180.064L165.394 180.064L165.664 174.07ZM147.074 186.022L141.509 183.778L141.509 183.778L147.074 186.022ZM118.297 194.475L121.766 189.579L121.766 189.579L118.297 194.475ZM96.2008 194.475L99.669 199.371L99.6691 199.371L96.2008 194.475ZM67.4254 186.022L72.99 183.778L72.9899 183.778L67.4254 186.022ZM48.8355 174.07L48.566 168.077H48.5659L48.8355 174.07ZM29.1969 151.398L23.3022 150.278L23.3022 150.278L29.1969 151.398ZM20.0172 131.287L17.0023 136.475L17.0024 136.475L20.0172 131.287ZM15.7496 101.59L20.1039 105.718L20.1039 105.718L15.7496 101.59ZM18.8931 79.7072L24.2339 76.973L24.2339 76.973L18.8931 79.7072ZM31.3521 52.4162L32.7828 58.2431L32.7829 58.2431L31.3521 52.4162ZM45.8228 35.7091L51.7941 36.2952L51.7941 36.2951L45.8228 35.7091ZM71.0513 19.4884L72.9994 13.8135L72.9993 13.8134L71.0513 19.4884ZM92.2525 13.2619L96.9597 16.9824C102.21 10.3392 112.288 10.3392 117.539 16.9824L122.246 13.2619L126.953 9.54132C116.898 -3.18034 97.6005 -3.18055 87.5453 9.54136L92.2525 13.2619ZM122.246 13.2619L117.538 16.9824C124.147 25.3437 135.314 28.6239 145.395 25.1634L143.447 19.4884L141.499 13.8135C136.235 15.6203 130.404 13.9077 126.953 9.54136L122.246 13.2619ZM143.447 19.4884L145.395 25.1634C153.398 22.4162 161.877 27.8655 162.704 36.2951L168.675 35.7091L174.647 35.1232C173.064 18.9923 156.837 8.54822 141.499 13.8135L143.447 19.4884ZM168.675 35.7091L162.704 36.2952C163.745 46.9003 171.365 55.7015 181.716 58.2431L183.147 52.4162L184.578 46.5892C179.173 45.2623 175.191 40.6647 174.647 35.1231L168.675 35.7091ZM183.147 52.4162L181.716 58.2431C189.937 60.2615 194.125 69.4317 190.264 76.973L195.605 79.7072L200.946 82.4414C208.333 68.0126 200.327 50.456 184.578 46.5892L183.147 52.4162ZM195.605 79.7072L190.264 76.973C185.408 86.4592 187.062 97.9827 194.395 105.718L198.75 101.59L203.104 97.462C199.273 93.4216 198.408 87.3988 200.946 82.4413L195.605 79.7072ZM198.75 101.59L194.395 105.718C200.224 111.866 198.789 121.844 191.466 126.1L194.481 131.287L197.496 136.475C211.516 128.327 214.259 109.229 203.104 97.4621L198.75 101.59ZM194.481 131.287L191.466 126.1C182.25 131.456 177.42 142.049 179.408 152.517L185.302 151.398L191.197 150.278C190.158 144.806 192.684 139.271 197.496 136.475L194.481 131.287ZM185.302 151.398L179.408 152.517C180.988 160.839 174.387 168.457 165.933 168.077L165.664 174.07L165.394 180.064C181.594 180.793 194.22 166.202 191.197 150.278L185.302 151.398ZM165.664 174.07L165.933 168.077C155.285 167.597 145.495 173.895 141.509 183.778L147.074 186.022L152.638 188.266C154.721 183.103 159.835 179.814 165.394 180.064L165.664 174.07ZM147.074 186.022L141.509 183.778C138.342 191.632 128.672 194.471 121.766 189.579L118.297 194.475L114.829 199.371C128.062 208.745 146.575 203.301 152.638 188.266L147.074 186.022ZM118.297 194.475L121.766 189.579C113.069 183.418 101.43 183.418 92.7324 189.579L96.2008 194.475L99.6691 199.371C104.21 196.154 110.288 196.154 114.829 199.371L118.297 194.475ZM96.2008 194.475L92.7325 189.579C85.8262 194.471 76.1572 191.632 72.99 183.778L67.4254 186.022L61.8608 188.266C67.9237 203.3 86.4364 208.745 99.669 199.371L96.2008 194.475ZM67.4254 186.022L72.9899 183.778C69.0045 173.895 59.214 167.598 48.566 168.077L48.8355 174.07L49.1051 180.064C54.6639 179.814 59.7787 183.103 61.8608 188.266L67.4254 186.022ZM48.8355 174.07L48.5659 168.077C40.112 168.457 33.5113 160.839 35.0915 152.517L29.1969 151.398L23.3022 150.278C20.2786 166.202 32.9051 180.793 49.1052 180.064L48.8355 174.07ZM29.1969 151.398L35.0915 152.517C37.0795 142.048 32.2482 131.456 23.032 126.1L20.0172 131.287L17.0024 136.475C21.8147 139.272 24.3413 144.806 23.3022 150.278L29.1969 151.398ZM20.0172 131.287L23.032 126.1C15.7094 121.844 14.2749 111.866 20.1039 105.718L15.7496 101.59L11.3953 97.462C0.240514 109.228 2.98177 128.327 17.0023 136.475L20.0172 131.287ZM15.7496 101.59L20.1039 105.718C27.4373 97.9823 29.0901 86.4587 24.2339 76.973L18.8931 79.7072L13.5523 82.4414C16.0905 87.3993 15.2253 93.4219 11.3952 97.4621L15.7496 101.59ZM18.8931 79.7072L24.2339 76.973C20.3734 69.4322 24.5613 60.2617 32.7828 58.2431L31.3521 52.4162L29.9215 46.5892C14.173 50.4558 6.16525 68.0121 13.5524 82.4414L18.8931 79.7072ZM31.3521 52.4162L32.7829 58.2431C43.1345 55.7012 50.7533 46.8998 51.7941 36.2952L45.8228 35.7091L39.8515 35.1231C39.3076 40.6648 35.3255 45.2622 29.9213 46.5893L31.3521 52.4162ZM45.8228 35.7091L51.7941 36.2951C52.6213 27.8658 61.1003 22.4163 69.1034 25.1634L71.0513 19.4884L72.9993 13.8134C57.6612 8.5486 41.4345 18.9923 39.8515 35.1232L45.8228 35.7091ZM71.0513 19.4884L69.1033 25.1634C79.1841 28.6239 90.3511 25.3436 96.9597 16.9824L92.2525 13.2619L87.5453 9.54134C84.0942 13.9077 78.2629 15.6203 72.9994 13.8135L71.0513 19.4884Z" fill="#261A30" mask="url(#path-1-outside-1_0_117)"/>
</g>
<defs>
<filter id="filter0_d_0_117" x="0" y="0" width="214.499" height="214.499" filterUnits="userSpaceOnUse" color-interpolation-filters="sRGB">
<feFlood flood-opacity="0" result="BackgroundImageFix"/>
<feColorMatrix in="SourceAlpha" type="matrix" values="0 0 0 0 0 0 0 0 0 0 0 0 0 0 0 0 0 0 127 0" result="hardAlpha"/>
<feMorphology radius="4.5" operator="dilate" in="SourceAlpha" result="effect1_dropShadow_0_117"/>
<feOffset dy="6"/>
<feComposite in2="hardAlpha" operator="out"/>
<feColorMatrix type="matrix" values="0 0 0 0 0.14902 0 0 0 0 0.101961 0 0 0 0 0.188235 0 0 0 1 0"/>
<feBlend mode="normal" in2="BackgroundImageFix" result="effect1_dropShadow_0_117"/>
<feBlend mode="normal" in="SourceGraphic" in2="effect1_dropShadow_0_117" result="shape"/>
</filter>
</defs>
</svg>
